<svg xmlns="http://www.w3.org/2000/svg" viewBox="0 0 512 512" width="512" height="512">
  <rect width="512" height="512" rx="110" fill="#4f46e5"/>
  <g fill="#ffffff">
    <path d="M256 96 64 184l192 88 160-73.3V320h32V184L256 96zm0 35.4 120.5 55.2L256 241.8 135.5 186.6 256 131.4z"/>
    <path d="M144 248v74c0 31 50.1 56 112 56s112-25 112-56v-74l-32 14.6V322c0 11.6-32.4 28-80 28s-80-16.4-80-28v-59.4L144 248z"/>
  </g>
  <text x="256" y="452" font-family="Arial, sans-serif" font-size="64" font-weight="bold" fill="#ffffff" text-anchor="middle">G3</text>
</svg>
